<svg width="152" height="56" viewBox="0 0 152 56" fill="none" xmlns="http://www.w3.org/2000/svg">
<path d="M38.0264 41.3106C38.1967 40.8942 38.4337 40.5024 38.7336 40.1332C39.0335 39.7639 39.4327 39.4685 39.9272 39.2491C40.4216 39.0296 40.9748 38.9188 41.5847 38.9188C42.2332 38.9188 42.8087 39.0316 43.3112 39.2552C43.8158 39.4788 44.215 39.7783 44.5108 40.1516C44.8067 40.525 45.0316 40.9208 45.1836 41.3373C45.3355 41.7537 45.4207 42.1762 45.4409 42.605H37.7123C37.7488 42.1557 37.8542 41.725 38.0244 41.3085M36.6748 48.9906C38.0244 50.3424 39.7347 51.0173 41.8056 51.0173C42.91 51.0173 43.9434 50.8449 44.8999 50.5024C45.8584 50.1578 46.673 49.6614 47.3457 49.0111L46.0022 47.0316C45.5321 47.5096 44.9384 47.8829 44.2231 48.1496C43.5078 48.4162 42.8026 48.5496 42.1116 48.5496C40.8634 48.5496 39.8522 48.1865 39.0801 47.4583C38.3081 46.7321 37.8623 45.8193 37.7407 44.7219H48.3082V44.006C48.3082 41.8008 47.6942 39.9896 46.4642 38.5742C45.2363 37.1588 43.6091 36.4491 41.5847 36.4491C40.2676 36.4491 39.0761 36.7732 38.0082 37.4234C36.9403 38.0737 36.1135 38.9516 35.5299 40.0593C34.9443 41.167 34.6525 42.3834 34.6525 43.7106C34.6525 45.8788 35.3273 47.6388 36.6748 48.9885M22.3687 50.6644V40.9906C22.7557 40.4675 23.2623 40.0265 23.8844 39.6655C24.5065 39.3065 25.1752 39.126 25.8865 39.126C26.7902 39.126 27.4812 39.3393 27.9574 39.7639C28.4336 40.1885 28.6707 40.9106 28.6707 41.9301V50.6644H31.6474V40.8511C31.6474 39.4132 31.2786 38.3178 30.539 37.5711C29.7994 36.8224 28.697 36.4491 27.2299 36.4491C26.2228 36.4491 25.2907 36.6685 24.4315 37.1075C23.5723 37.5465 22.8854 38.0737 22.3687 38.6911V31.5137H19.3919V50.6644H22.3687ZM7.63292 34.4716V50.6644H10.9562V34.4716H16.6766V31.5137H1.90234V34.4716H7.63494H7.63292Z" fill="#FFCD06"/>
<path d="M140.966 50.4576C141.985 50.831 143.084 51.0176 144.255 51.0176C146.046 51.0176 147.444 50.6135 148.451 49.8033C149.458 48.993 149.961 47.9571 149.961 46.6935C149.961 46.0371 149.843 45.4545 149.608 44.9479C149.373 44.4412 149.063 44.0392 148.676 43.7438C148.289 43.4484 147.847 43.1879 147.349 42.9622C146.851 42.7366 146.346 42.5602 145.835 42.4351C145.325 42.3079 144.82 42.1848 144.322 42.0617C143.823 41.9386 143.377 41.8279 142.984 41.7315C142.589 41.6351 142.273 41.4833 142.036 41.2761C141.799 41.071 141.679 40.8228 141.679 40.5335C141.679 40.0371 141.91 39.631 142.372 39.313C142.834 38.9951 143.452 38.8351 144.228 38.8351C145.059 38.8351 145.837 38.9889 146.563 39.2986C147.288 39.6084 147.862 40.0104 148.287 40.5069L149.533 38.3899C148.074 37.0976 146.297 36.4494 144.202 36.4494C142.53 36.4494 141.215 36.8535 140.255 37.6617C139.294 38.4699 138.814 39.4648 138.814 40.6463C138.814 41.3704 138.966 41.994 139.272 42.5151C139.576 43.0381 139.971 43.4402 140.455 43.7212C140.94 44.0043 141.483 44.2258 142.085 44.3858C142.686 44.5458 143.276 44.7038 143.856 44.8576C144.435 45.0115 144.968 45.1551 145.452 45.2843C145.939 45.4135 146.334 45.6002 146.638 45.8422C146.942 46.0843 147.096 46.3879 147.096 46.753C147.096 47.313 146.863 47.7663 146.397 48.113C145.931 48.4576 145.264 48.632 144.395 48.632C143.525 48.632 142.688 48.4371 141.825 48.0494C140.962 47.6597 140.271 47.1981 139.754 46.6648L138.382 48.8576C139.083 49.5489 139.945 50.0822 140.966 50.4556M132.719 50.6648V41.2166C133.014 40.7304 133.517 40.3038 134.228 39.9345C134.94 39.5653 135.608 39.3807 136.236 39.3807C136.615 39.3807 136.929 39.4094 137.179 39.4648V36.4781C136.319 36.4781 135.499 36.6976 134.715 37.1366C133.93 37.5756 133.266 38.1417 132.721 38.833V36.8002H129.744V50.6648H132.721H132.719ZM116.481 41.3069C116.652 40.8904 116.889 40.4986 117.189 40.1294C117.488 39.7602 117.888 39.4648 118.382 39.2453C118.877 39.0258 119.43 38.9151 120.04 38.9151C120.688 38.9151 121.264 39.0279 121.766 39.2515C122.271 39.4751 122.67 39.7745 122.966 40.1479C123.262 40.5212 123.486 40.9171 123.638 41.3315C123.79 41.7479 123.876 42.1704 123.896 42.5992H116.167C116.204 42.1499 116.309 41.7192 116.479 41.3028M115.13 48.9848C116.479 50.3366 118.188 51.0115 120.261 51.0115C121.367 51.0115 122.398 50.8392 123.357 50.4966C124.315 50.152 125.13 49.6556 125.803 49.0053L124.459 47.0258C123.987 47.5038 123.395 47.8771 122.678 48.1438C121.963 48.4104 121.257 48.5438 120.566 48.5438C119.318 48.5438 118.307 48.1807 117.535 47.4525C116.763 46.7263 116.317 45.8135 116.196 44.7161H126.763V44.0002C126.763 41.7951 126.149 39.9838 124.919 38.5684C123.691 37.153 122.064 36.4453 120.04 36.4453C118.722 36.4453 117.531 36.7694 116.463 37.4197C115.395 38.0699 114.568 38.9479 113.985 40.0556C113.399 41.1633 113.107 42.3797 113.107 43.7069C113.107 45.8751 113.782 47.6351 115.13 48.9848Z" fill="#FFCD06"/>
<path d="M68.4201 4.90684L60.4808 27.7745H69.0645C72.9369 27.7745 75.8954 28.5909 77.94 30.2258C79.7475 31.6412 80.6513 33.4812 80.6513 35.7458C80.6513 38.2073 79.7901 40.4945 78.0697 42.6053C76.2622 44.8063 74.0778 46.0679 71.5185 46.3961C71.8832 45.4607 72.0676 44.5232 72.0676 43.5858C72.0676 41.4299 71.2287 39.5838 69.5508 38.0494C67.873 36.513 65.8385 35.7458 63.4515 35.7458C61.0644 35.7458 59.0988 36.513 57.4332 38.0494C55.7655 39.5858 54.9326 41.4299 54.9326 43.5858C54.9326 45.6104 55.6743 47.3643 57.1596 48.8453C58.6449 50.3263 60.5051 51.2186 62.7422 51.5243C64.6997 51.8299 66.6471 51.9817 68.5843 51.9817C77.6199 51.9817 84.6554 49.3581 89.6909 44.1089C92.767 40.9294 94.2948 37.5202 94.2746 33.8832C94.232 30.5068 92.8217 27.6556 90.0476 25.3232C87.466 23.1673 83.6686 22.0884 78.6553 22.0884H74.1041L76.943 14.2156H93.5309L97.4357 4.90479H68.4222L68.4201 4.90684Z" fill="#FFCD06"/>
<path d="M122.759 4.90674L94.457 50.8719H102.009L130.666 4.90674H122.759Z" fill="#FFCD06"/>
<path d="M105.977 18.6914C109.931 18.6914 113.135 15.4484 113.135 11.4463C113.135 7.44425 109.931 4.20117 105.977 4.20117C102.024 4.20117 98.8203 7.44425 98.8203 11.4463C98.8203 15.4484 102.024 18.6914 105.977 18.6914Z" fill="#FFCD06"/>
</svg>
